<?xml version="1.0" encoding="utf-8"?>
<!-- Svg Vector Icons : http://www.onlinewebfonts.com/icon -->
<!DOCTYPE svg PUBLIC "-//W3C//DTD SVG 1.1//EN" "http://www.w3.org/Graphics/SVG/1.1/DTD/svg11.dtd">
<svg version="1.1" xmlns="http://www.w3.org/2000/svg" xmlns:xlink="http://www.w3.org/1999/xlink" x="0px" y="0px" viewBox="0 0 1000 1000" enable-background="new 0 0 1000 1000" xml:space="preserve">
<metadata> Svg Vector Icons : http://www.onlinewebfonts.com/icon </metadata>
<g><g transform="translate(0.000000,511.000000) scale(0.100000,-0.100000)"><path d="M4861.5,4562.1c-190.5-32.7-279.1-59.7-423.4-127c-129-61.6-192.5-109.7-307.9-225.2c-142.4-144.4-167.4-184.8-2042-3495.1C1043-1127.1,175-2680.3,155.8-2736.1c-50-154-67.4-342.6-48.1-500.4c65.4-504.2,396.5-908.4,885.3-1073.9c102-34.7,244.4-36.6,4003.2-36.6h3897.4l142.4,46.2c306,100.1,573.5,338.7,727.5,648.6c155.9,313.7,179,648.6,65.4,952.7c-51.9,136.6-3772.3,6691.9-3874.3,6824.7c-136.6,179-381.1,334.9-621.7,398.4C5211.8,4554.4,4944.2,4577.5,4861.5,4562.1z M5331.1,4125.2c96.2-48.1,173.2-103.9,236.7-173.2c67.4-77,585.1-971.9,1980.4-3431.6C8587.6-1310,9453.6-2849.7,9471-2903.5c50-136.6,50-392.6,1.9-523.5c-78.9-213.6-265.6-390.7-490.8-471.5l-127-44.2l-3743.4-5.8c-2453.9-3.8-3799.2,1.9-3905.1,15.4c-384.9,46.2-656.3,292.5-714,648.6c-21.2,129,3.9,319.5,55.8,438.8c44.3,102,3741.5,6613,3814.6,6718.9c96.2,142.4,286.8,273.3,454.2,315.6c40.4,9.6,140.5,15.4,221.3,11.6C5165.6,4196.4,5209.9,4184.9,5331.1,4125.2z"/><path d="M4871.1,2029.3c-26.9-25-57.7-78.9-67.4-121.2c-25-109.7-25-2944.7,0-3035.2c42.3-152,213.6-200.1,331-94.3l63.5,55.8V397.2V1960l-63.5,55.8C5055.9,2087,4946.2,2092.8,4871.1,2029.3z"/><path d="M4886.5-2201c-94.3-55.8-127-209.8-75.1-336.8c71.2-169.4,308-175.1,377.2-7.7c13.5,32.7,21.2,102,15.4,165.5c-7.7,92.4-19.2,117.4-71.2,163.6C5059.7-2151,4975-2145.2,4886.5-2201z"/></g></g>
</svg>